<svg width="36" height="36" viewBox="0 0 36 36" fill="none" xmlns="http://www.w3.org/2000/svg">
    <path d="M16 5H8C6.9 5 6 5.9 6 7V15H8C8 13.34 9.34 12 11 12C12.66 12 14 13.34 14 15H16V11C14.34 11 13 9.66 13 8C13 6.34 14.34 5 16 5Z" stroke="#666" stroke-width="1.6" fill="none" stroke-linejoin="round"/>
    <path d="M20 5H28C29.1 5 30 5.9 30 7V15H28C28 13.34 26.66 12 25 12C23.34 12 22 13.34 22 15H20V11C21.66 11 23 9.66 23 8C23 6.34 21.66 5 20 5Z" stroke="#666" stroke-width="1.6" fill="none" stroke-linejoin="round"/>
    <path d="M16 31H8C6.9 31 6 30.1 6 29V21H8C8 22.66 9.34 24 11 24C12.66 24 14 22.66 14 21H16V25C14.34 25 13 26.34 13 28C13 29.66 14.34 31 16 31Z" stroke="#666" stroke-width="1.6" fill="none" stroke-linejoin="round"/>
    <path d="M20 31H28C29.1 31 30 30.1 30 29V21H28C28 22.66 26.66 24 25 24C23.34 24 22 22.66 22 21H20V25C21.66 25 23 26.34 23 28C23 29.66 21.66 31 20 31Z" stroke="#666" stroke-width="1.6" fill="none" stroke-linejoin="round"/>
</svg>
